Coordinates
version=1
nRows=15
nColumns=19
inDegrees=yes

Units are S.I. units (second, meters, Newtons, ...)
If the header above contains a line with 'inDegrees', this indicates whether rotational values are in degrees (yes) or radians (no).

endheader
time	pelvis_tilt	pelvis_list	pelvis_rotation	pelvis_tx	pelvis_ty	pelvis_tz	hip_flexion_r	hip_adduction_r	hip_rotation_r	knee_angle_r	knee_angle_r_beta	ankle_angle_r	hip_flexion_l	hip_adduction_l	hip_rotation_l	knee_angle_l	knee_angle_l_beta	ankle_angle_l
     13.34666667	     -9.26061750	      5.00482245	      7.87153217	      2.15927356	      1.05257377	      0.99589189	     -9.18134704	     -8.44088479	    -14.10021562	     50.06895574	      0.87386813	    -19.37692308	     32.86053158	      9.86454810	     -3.98291749	     15.30107803	      0.26705419	      6.67205766
     13.35333333	     -8.40948362	      5.19998674	      8.05501702	      2.15862680	      1.04888406	      0.99594352	     -9.14362028	     -8.91030243	    -14.18448479	     53.08291911	      0.92647172	    -19.35939054	     32.79230909	      9.74654330	     -4.81912313	     18.18357310	      0.31736322	      6.50520684
     13.36000000	     -7.90406391	      5.16797428	      8.16190477	      2.15765717	      1.04427305	      0.99619750	     -8.51308201	     -9.15686478	    -13.96933384	     56.21756869	      0.98118167	    -19.20990431	     33.28898210	      9.32097487	     -5.68398808	     21.65690610	      0.37798432	      6.41380083
     13.36666667	     -6.82220305	      5.38115003	      8.31899814	      2.15670818	      1.04007962	      0.99662941	     -8.57213260	     -9.60341991	    -14.02054634	     59.20434165	      1.03331069	    -18.97126639	     33.06354099	      9.05654633	     -6.40690308	     25.21999833	      0.44017201	      6.46890292
     13.37333333	     -6.41879426	      5.11849390	      8.27744623	      2.15539403	      1.03474800	      0.99738312	     -7.52552684	     -9.52906423	    -13.40490265	     62.35214474	      1.08825022	    -18.51956474	     33.69886515	      8.28140291	     -6.93829302	     29.11782682	      0.50820195	      6.76694805
     13.38000000	     -5.71907994	      5.05042711	      8.30985447	      2.15405010	      1.02964158	      0.99820158	     -6.82667587	     -9.63992684	    -13.02862597	     65.39789130	      1.14140853	    -17.89160075	     33.84473074	      7.73487942	     -7.20343877	     32.88106675	      0.57388288	      7.35229389
     13.38666667	     -4.77099621	      5.15412337	      8.34879957	      2.15262288	      1.02487226	      0.99910124	     -6.37671154	     -9.92820657	    -12.77031813	     68.35103684	      1.19295064	    -17.11044135	     33.51688204	      7.38887415	     -7.27951599	     36.40000514	      0.63529994	      8.28191789
     13.39333333	     -4.46751768	      4.87251963	      8.30600913	      2.15085884	      1.01932396	      1.00017395	     -4.92813074	     -9.75455467	    -12.06833350	     71.37187623	      1.24567423	    -16.22071437	     33.87624978	      6.74921431	     -7.12778657	     39.90700414	      0.69650862	      9.55285514
     13.40000000	     -3.74840175	      5.03028678	      8.36567999	      2.14909703	      1.01463174	      1.00111110	     -4.03253099	    -10.10022345	    -11.74560619	     74.22025350	      1.29538780	    -15.16941062	     33.43014679	      6.62996499	     -6.87075983	     42.90165026	      0.74877505	     11.16592644
     13.40666667	     -3.82153353	      4.78015402	      8.32579773	      2.14710499	      1.00923402	      1.00221130	     -1.96355196	    -10.00739068	    -11.04176893	     77.11663781	      1.34593924	    -14.22124893	     33.75125964	      6.19492429	     -6.50817045	     45.70833947	      0.79776102	     12.91003828
     13.41333333	     -3.73430155	      4.77684193	      8.34945295	      2.14510230	      1.00457128	      1.00318254	     -0.09186879	    -10.21405648	    -10.53373799	     79.82329488	      1.39317932	    -13.22149037	     33.57556643	      6.07275207	     -6.11667118	     48.01910837	      0.83809154	     14.89508420
     13.42000000	     -3.77684247	      4.78635701	      8.35388208	      2.14307255	      1.00030678	      1.00414697	      2.00810730	    -10.44798487	    -10.00577707	     82.37052997	      1.43763695	    -12.28002061	     33.28018046	      5.99366801	     -5.74239734	     49.90701862	      0.87104179	     16.97308535
     13.42666667	     -3.95833864	      4.79724034	      8.33385270	      2.14108516	      0.99649859	      1.00507282	      4.33197717	    -10.71230317	     -9.47628150	     84.72489423	      1.47872836	    -11.39383443	     32.87691233	      5.93097065	     -5.40838116	     51.37385408	      0.89664290	     19.06105103
     13.43333333	     -4.22398256	      4.78332736	      8.29921505	      2.13918092	      0.99325953	      1.00590062	      6.79081204	    -10.96584331	     -8.97409861	     86.83180738	      1.51550093	    -10.59422945	     32.31697508	      5.85287720	     -5.09453957	     52.43089404	      0.91509173	     21.08679995
     13.44000000	     -4.55419764	      4.78566048	      8.16514208	      2.13743136	      0.99070527	      1.00674401	      9.37733657	    -11.22903165	     -8.40899756	     88.67438257	      1.54765994	     -9.88219157	     31.56562072	      5.76047354	     -4.86368793	     53.04984554	      0.92589447	     22.99874025
